<svg width="135" height="92" viewBox="0 0 135 92" fill="none" xmlns="http://www.w3.org/2000/svg">
<g filter="url(#filter0_d_11_230)">
<rect x="4" y="3" width="124" height="77" rx="38.5" fill="white"/>
<path d="M81.1777 40.6873C81.9864 62.5681 66.0699 80.9185 45.627 81.6741C25.1842 82.4297 7.95641 65.3043 7.14768 43.4235C6.33895 21.5426 22.2555 3.19222 42.6984 2.43664C63.1412 1.68106 80.369 18.8064 81.1777 40.6873Z" fill="white"/>
<path d="M129.006 39.5272C129.815 61.408 113.899 79.7585 93.4557 80.5141C73.0129 81.2696 55.7851 64.1442 54.9764 42.2634C54.1676 20.3826 70.0842 2.03218 90.5271 1.2766C110.97 0.521018 128.198 17.6464 129.006 39.5272Z" fill="white"/>
<path d="M74.647 2.95031L54.7989 6.06354L53.1047 70.6143L58.7797 79.3944L68.6646 80.5956L82.7698 78.4618L82.4661 5.18315L74.647 2.95031Z" fill="white"/>
<path d="M33.2717 81.0794C16.5753 75.995 5.92222 60.1184 6.00043 41.2379C6.07864 22.3573 16.8629 6.5696 33.6008 1.62369L33.2717 81.0794ZM13.2185 31.729L17.7419 31.7477C18.4303 31.7506 18.8249 31.4572 19.0244 30.7697C20.3203 26.5465 22.695 23.0162 24.7682 21.058C25.3607 20.4704 25.8507 20.8658 25.6512 21.5534L15.176 57.6983C14.9769 58.2875 14.974 58.9759 15.2666 59.5671C18.8761 66.564 24.361 71.897 31.1331 75.0719C31.8202 75.3697 32.3136 74.9784 32.3164 74.2901L32.4089 51.9678C32.4117 51.2794 32.02 50.8844 31.3317 50.8816L27.4965 50.8657C26.8082 50.8628 26.4132 51.2546 26.4104 51.9429L26.366 62.6616C26.3631 63.3499 25.8706 63.5446 25.381 63.0508C23.9129 61.373 22.5435 59.5972 21.4703 57.5277C21.1774 57.0348 21.2777 56.5435 21.3781 56.0523L32.1614 16.7618C32.4604 15.7796 32.5624 14.895 32.5665 13.9117L32.5901 8.20815C32.593 7.51979 32.1029 7.12441 31.4134 7.41657C21.8572 11.6055 15.2353 19.6418 12.4363 30.644C12.2368 31.3316 12.5301 31.7261 13.2185 31.729Z" fill="url(#paint0_linear_11_230)"/>
<path d="M45.2898 0.00037185C49.4199 0.0174803 53.3509 0.62379 56.9848 1.72056L56.6557 81.1762C53.0128 82.2429 49.0765 82.9149 44.9464 82.8978C40.8162 82.8807 36.8856 82.176 33.2517 81.0793L33.5808 1.62361C37.2237 0.556985 41.1596 -0.0167366 45.2898 0.00037185ZM44.9667 77.981C52.0469 78.0103 55.698 74.977 55.7229 68.9785L55.9546 13.0251C55.9787 7.22332 52.3512 4.55317 45.271 4.52384C38.1908 4.49451 34.5414 7.13452 34.5173 12.9363L34.2856 68.8896C34.2607 74.8882 37.8865 77.9517 44.9667 77.981ZM44.9932 71.5891C42.1415 71.5773 40.6717 70.2928 40.6795 68.4244L40.9002 15.1262C40.9059 13.7495 41.9933 12.3773 45.2384 12.3907C48.4835 12.4042 49.5595 13.7854 49.5538 15.1621L49.333 68.4603C49.3253 70.3287 47.845 71.601 44.9932 71.5891Z" fill="url(#paint1_linear_11_230)"/>
<path d="M68.6723 0.0972306C72.8024 0.114339 76.7334 0.720648 80.3673 1.81742L80.0382 81.2731C76.3953 82.3397 72.459 83.0118 68.3289 82.9947C64.1987 82.9775 60.2682 82.2729 56.6342 81.1761L56.9633 1.72047C60.6062 0.653844 64.5421 0.0801222 68.6723 0.0972306ZM62.7461 77.563C63.5324 77.6645 64.0257 77.2732 64.029 76.4865L64.2497 23.1883C64.253 22.4016 64.8438 22.2074 65.1356 22.9953L72.1478 39.4468C72.4399 40.1364 72.8271 41.613 72.8206 43.1864L72.6825 76.5224C72.6793 77.3091 73.1689 77.8028 73.9564 77.6094C75.334 77.4184 76.7119 77.1291 78.0902 76.7415C78.7794 76.5476 79.076 76.1555 79.0789 75.4672L79.3612 7.32018C79.364 6.63182 79.0706 6.23725 78.3831 6.03773C77.0084 5.54035 75.7313 5.24004 74.2571 5.03726C73.4708 4.93566 72.9771 5.4253 72.9738 6.212L72.8988 24.3059C72.8956 25.0926 72.3048 25.2868 72.013 24.4989L64.7148 5.88277C64.4222 5.29153 63.9318 4.99449 63.243 5.08997C61.7671 5.28053 60.3892 5.56984 58.9121 6.05541C58.223 6.24923 57.9263 6.64135 57.9235 7.32971L57.642 75.28C57.6391 75.9684 57.9325 76.3629 58.6201 76.5625C59.9947 77.0599 61.3706 77.2622 62.7461 77.563Z" fill="url(#paint2_linear_11_230)"/>
<path d="M92.0548 0.194089C96.1849 0.211198 100.116 0.817507 103.75 1.91427L103.421 81.3699C99.7778 82.4366 95.8415 83.1086 91.7114 83.0915C87.5813 83.0744 83.6507 82.3698 80.0167 81.273L80.3458 1.81733C83.9888 0.750703 87.9247 0.176981 92.0548 0.194089ZM91.9284 78.1755C95.2719 78.1894 98.6173 77.7115 101.669 76.8391C102.359 76.6453 102.655 76.2532 102.658 75.5648L102.756 51.9641C102.758 51.4725 102.464 51.1762 101.972 51.1742L97.1539 51.1542C96.6622 51.1522 96.366 51.446 96.364 51.9377L96.2882 70.2282C96.2854 70.9166 95.89 71.4066 95.2012 71.5021C94.1187 71.6943 93.0366 71.7881 91.9549 71.7837C90.7749 71.7788 89.5952 71.6756 88.5144 71.4744C87.8264 71.3732 87.4351 70.8799 87.438 70.1916L87.5373 46.1975C87.5402 45.5092 88.0339 45.0195 88.7223 45.0224L96.8842 45.0562C97.4742 45.0586 97.8692 44.6669 97.8716 44.0769L97.8899 39.6518C97.8924 39.0617 97.5007 38.6668 96.9106 38.6643L88.7487 38.6305C88.0604 38.6277 87.5707 38.1339 87.5736 37.4456L87.6705 14.0416C87.6734 13.3532 88.0688 12.8632 88.7575 12.7677C89.7417 12.5751 90.8238 12.4812 91.9055 12.4857C92.9872 12.4902 93.8718 12.5922 94.9527 12.7933C95.6407 12.8945 96.032 13.3878 96.0291 14.0762L95.9578 31.285C95.9558 31.7767 96.2496 32.0729 96.7413 32.075L101.56 32.0949C102.051 32.097 102.348 31.8032 102.35 31.3115L102.449 7.41581C102.452 6.72746 102.158 6.33289 101.471 6.13337C98.4258 5.23571 95.2811 4.731 91.9377 4.71715C88.5943 4.7033 85.2484 5.27946 82.2946 6.15227C81.6055 6.34609 81.3088 6.73821 81.306 7.42657L81.0245 75.3769C81.0217 76.0652 81.315 76.4598 82.0026 76.6593C85.0473 77.557 88.4867 78.1613 91.9284 78.1755Z" fill="url(#paint3_linear_11_230)"/>
<path d="M103.399 81.3698L103.728 1.91419C120.425 6.99859 131.078 22.8751 131 41.7557C130.921 60.6362 120.137 76.4239 103.399 81.3698ZM104.443 66.8202C104.429 70.0653 106.387 72.3351 108.944 72.3457C115.925 72.3746 125.823 56.9766 125.887 41.5378L125.893 40.1611C125.896 39.2761 125.21 38.7815 124.227 38.7775L111.541 38.7249C110.951 38.7225 110.56 38.3275 110.562 37.7375L110.619 23.8721C110.625 22.5937 111.218 21.9078 111.906 21.9107C114.266 21.9204 116.709 25.6674 118.259 31.1807C118.453 31.8699 118.944 32.167 119.632 32.1698L123.762 32.1869C124.451 32.1898 124.747 31.7976 124.553 31.1085C121.946 19.6905 115.099 10.7134 109.199 10.6889C106.544 10.6779 104.666 12.8336 104.653 16.0787L104.539 43.5145C104.535 44.4978 105.123 45.0903 106.106 45.0944L118.497 45.1457C119.087 45.1481 119.577 45.5435 119.476 46.2315C118.453 55.5693 114.394 62.2395 111.739 62.2285C110.854 62.2248 110.463 61.5349 110.468 60.3548L110.501 52.3896C110.504 51.7012 110.014 51.2075 109.326 51.2047L105.688 51.1896C104.999 51.1867 104.506 51.6764 104.503 52.3647L104.443 66.8202Z" fill="url(#paint4_linear_11_230)"/>
</g>
<defs>
<filter id="filter0_d_11_230" x="0" y="0" width="135" height="91.0919" filterUnits="userSpaceOnUse" color-interpolation-filters="sRGB">
<feFlood flood-opacity="0" result="BackgroundImageFix"/>
<feColorMatrix in="SourceAlpha" type="matrix" values="0 0 0 0 0 0 0 0 0 0 0 0 0 0 0 0 0 0 127 0" result="hardAlpha"/>
<feOffset dy="4"/>
<feGaussianBlur stdDeviation="2"/>
<feComposite in2="hardAlpha" operator="out"/>
<feColorMatrix type="matrix" values="0 0 0 0 0 0 0 0 0 0 0 0 0 0 0 0 0 0 0.25 0"/>
<feBlend mode="normal" in2="BackgroundImageFix" result="effect1_dropShadow_11_230"/>
<feBlend mode="normal" in="SourceGraphic" in2="effect1_dropShadow_11_230" result="shape"/>
</filter>
<linearGradient id="paint0_linear_11_230" x1="68.5" y1="0" x2="68.5" y2="83.0918" gradientUnits="userSpaceOnUse">
<stop offset="0.0001" stop-color="#363B3C"/>
<stop offset="1" stop-color="#030303"/>
</linearGradient>
<linearGradient id="paint1_linear_11_230" x1="68.5" y1="0" x2="68.5" y2="83.0918" gradientUnits="userSpaceOnUse">
<stop offset="0.0001" stop-color="#363B3C"/>
<stop offset="1" stop-color="#030303"/>
</linearGradient>
<linearGradient id="paint2_linear_11_230" x1="68.5" y1="0" x2="68.5" y2="83.0918" gradientUnits="userSpaceOnUse">
<stop offset="0.0001" stop-color="#363B3C"/>
<stop offset="1" stop-color="#030303"/>
</linearGradient>
<linearGradient id="paint3_linear_11_230" x1="68.5" y1="0" x2="68.5" y2="83.0918" gradientUnits="userSpaceOnUse">
<stop offset="0.0001" stop-color="#363B3C"/>
<stop offset="1" stop-color="#030303"/>
</linearGradient>
<linearGradient id="paint4_linear_11_230" x1="68.5" y1="0" x2="68.5" y2="83.0918" gradientUnits="userSpaceOnUse">
<stop offset="0.0001" stop-color="#363B3C"/>
<stop offset="1" stop-color="#030303"/>
</linearGradient>
</defs>
</svg>
