<svg width="100%" viewBox="0 0 30 29" fill="none" xmlns="http://www.w3.org/2000/svg">
<title id="titleID">heart symbol</title>
<path aria-labelledby="titleID" d="M23.5065 6.31333L23.4451 6.25638C22.4016 5.28814 21.0308 4.75007 19.6073 4.75C18.8482 4.75058 18.0971 4.9043 17.3988 5.20194C16.7005 5.49963 16.0693 5.93516 15.5433 6.48246L15.0127 7.03442L14.9993 7.02099L14.9865 7.03372L14.4566 6.48243C13.9306 5.93514 13.2995 5.49963 12.6011 5.20196C11.9029 4.90432 11.1518 4.75062 10.3927 4.75005C8.89623 4.75014 7.46103 5.34467 6.40283 6.40287C5.34462 7.46108 4.75009 8.89628 4.75 10.3928C4.75057 11.1518 4.90428 11.9029 5.20191 12.6012C5.49958 13.2995 5.93509 13.9306 6.48238 14.4567L7.03394 14.9868L7.02072 15.0001L14.9996 22.9789L22.9787 14.9999L22.9677 14.9889L23.5193 14.4582C24.0665 13.9318 24.5019 13.3003 24.7992 12.6016C25.0966 11.903 25.2499 11.1515 25.25 10.3922L23.5065 6.31333ZM23.5065 6.31333C24.0472 6.83019 24.4799 7.4496 24.7792 8.13568C25.0897 8.84743 25.25 9.61562 25.25 10.3922L23.5065 6.31333Z" stroke="#FF0000" stroke-width="1.5"/>
<g filter="url(#filter0_f_456_1178)">
<path d="M23.5065 6.31333L23.4451 6.25638C22.4016 5.28814 21.0308 4.75007 19.6073 4.75C18.8482 4.75058 18.0971 4.9043 17.3988 5.20194C16.7005 5.49963 16.0693 5.93516 15.5433 6.48246L15.0127 7.03442L14.9993 7.02099L14.9865 7.03372L14.4566 6.48243C13.9306 5.93514 13.2995 5.49963 12.6011 5.20196C11.9029 4.90432 11.1518 4.75062 10.3927 4.75005C8.89623 4.75014 7.46103 5.34467 6.40283 6.40287C5.34462 7.46108 4.75009 8.89628 4.75 10.3928C4.75057 11.1518 4.90428 11.9029 5.20191 12.6012C5.49958 13.2995 5.93509 13.9306 6.48238 14.4567L7.03394 14.9868L7.02072 15.0001L14.9996 22.9789L22.9787 14.9999L22.9677 14.9889L23.5193 14.4582C24.0665 13.9318 24.5019 13.3003 24.7992 12.6016C25.0966 11.903 25.2499 11.1515 25.25 10.3922L23.5065 6.31333ZM23.5065 6.31333C24.0472 6.83019 24.4799 7.4496 24.7792 8.13568C25.0897 8.84743 25.25 9.61562 25.25 10.3922L23.5065 6.31333Z" stroke="#FF0000" stroke-width="1.5"/>
</g>
<defs>
<filter id="filter0_f_456_1178" x="0" y="0" width="30" height="28.0396" filterUnits="userSpaceOnUse" color-interpolation-filters="sRGB">
<feFlood flood-opacity="0" result="BackgroundImageFix"/>
<feBlend mode="normal" in="SourceGraphic" in2="BackgroundImageFix" result="shape"/>
<feGaussianBlur stdDeviation="2" result="effect1_foregroundBlur_456_1178"/>
</filter>
</defs>
</svg>
